<mxfile host="app.diagrams.net" agent="Mozilla/5.0 (Windows NT 10.0; Win64; x64) AppleWebKit/537.36 (KHTML, like Gecko) Chrome/131.0.0.0 Safari/537.36" version="26.0.6">
  <diagram name="Page-1" id="3Q0fcmHKxnKmdZ5oj-_P">
    <mxGraphModel dx="989" dy="532" grid="1" gridSize="10" guides="1" tooltips="1" connect="1" arrows="1" fold="1" page="1" pageScale="1" pageWidth="827" pageHeight="1169" math="0" shadow="0">
      <root>
        <mxCell id="0" />
        <mxCell id="1" parent="0" />
        <mxCell id="up7-3EUq6QfrWLDxx7Hq-2" value="&lt;font style=&quot;font-size: 10px;&quot;&gt;Commande client&lt;/font&gt;" style="shape=umlFrame;whiteSpace=wrap;html=1;pointerEvents=0;" vertex="1" parent="1">
          <mxGeometry x="160" y="105" width="330" height="275" as="geometry" />
        </mxCell>
        <mxCell id="up7-3EUq6QfrWLDxx7Hq-3" value="Client" style="shape=umlActor;verticalLabelPosition=bottom;verticalAlign=top;html=1;textShadow=0;" vertex="1" parent="1">
          <mxGeometry x="90" y="220" width="30" height="60" as="geometry" />
        </mxCell>
        <mxCell id="up7-3EUq6QfrWLDxx7Hq-5" value="Commander" style="ellipse;whiteSpace=wrap;html=1;" vertex="1" parent="1">
          <mxGeometry x="236" y="182" width="90" height="40" as="geometry" />
        </mxCell>
        <mxCell id="up7-3EUq6QfrWLDxx7Hq-9" value="" style="endArrow=none;html=1;rounded=0;exitX=0.548;exitY=0.583;exitDx=0;exitDy=0;exitPerimeter=0;entryX=0;entryY=1;entryDx=0;entryDy=0;" edge="1" parent="1" source="up7-3EUq6QfrWLDxx7Hq-3" target="up7-3EUq6QfrWLDxx7Hq-5">
          <mxGeometry width="50" height="50" relative="1" as="geometry">
            <mxPoint x="270" y="350" as="sourcePoint" />
            <mxPoint x="320" y="300" as="targetPoint" />
          </mxGeometry>
        </mxCell>
        <mxCell id="up7-3EUq6QfrWLDxx7Hq-10" value="Choisir le(s) plat(s)" style="ellipse;whiteSpace=wrap;html=1;" vertex="1" parent="1">
          <mxGeometry x="370" y="132" width="110" height="50" as="geometry" />
        </mxCell>
        <mxCell id="up7-3EUq6QfrWLDxx7Hq-11" value="Choisir la (les) boisson(s)" style="ellipse;whiteSpace=wrap;html=1;" vertex="1" parent="1">
          <mxGeometry x="370" y="211" width="110" height="49" as="geometry" />
        </mxCell>
        <mxCell id="up7-3EUq6QfrWLDxx7Hq-13" style="edgeStyle=orthogonalEdgeStyle;rounded=0;orthogonalLoop=1;jettySize=auto;html=1;exitX=0.5;exitY=1;exitDx=0;exitDy=0;" edge="1" parent="1" source="up7-3EUq6QfrWLDxx7Hq-11" target="up7-3EUq6QfrWLDxx7Hq-11">
          <mxGeometry relative="1" as="geometry" />
        </mxCell>
        <mxCell id="up7-3EUq6QfrWLDxx7Hq-19" value="" style="endArrow=classic;html=1;rounded=0;exitX=0.004;exitY=0.39;exitDx=0;exitDy=0;exitPerimeter=0;dashed=1;" edge="1" parent="1" source="up7-3EUq6QfrWLDxx7Hq-11" target="up7-3EUq6QfrWLDxx7Hq-5">
          <mxGeometry width="50" height="50" relative="1" as="geometry">
            <mxPoint x="410" y="280" as="sourcePoint" />
            <mxPoint x="460" y="230" as="targetPoint" />
          </mxGeometry>
        </mxCell>
        <mxCell id="up7-3EUq6QfrWLDxx7Hq-23" value="&amp;lt;&amp;lt;include&amp;gt;&amp;gt;" style="text;html=1;align=center;verticalAlign=middle;resizable=0;points=[];autosize=1;strokeColor=none;fillColor=none;fontFamily=Helvetica;fontSize=7;fontColor=default;labelBackgroundColor=none;rotation=0;" vertex="1" parent="1">
          <mxGeometry x="325" y="206" width="60" height="20" as="geometry" />
        </mxCell>
        <mxCell id="up7-3EUq6QfrWLDxx7Hq-24" value="" style="endArrow=classic;html=1;rounded=0;exitX=0.028;exitY=0.725;exitDx=0;exitDy=0;exitPerimeter=0;dashed=1;entryX=0.933;entryY=0.213;entryDx=0;entryDy=0;entryPerimeter=0;" edge="1" parent="1" source="up7-3EUq6QfrWLDxx7Hq-10" target="up7-3EUq6QfrWLDxx7Hq-5">
          <mxGeometry width="50" height="50" relative="1" as="geometry">
            <mxPoint x="381" y="244" as="sourcePoint" />
            <mxPoint x="326" y="225" as="targetPoint" />
          </mxGeometry>
        </mxCell>
        <mxCell id="up7-3EUq6QfrWLDxx7Hq-25" value="&amp;lt;&amp;lt;include&amp;gt;&amp;gt;" style="text;html=1;align=center;verticalAlign=middle;resizable=0;points=[];autosize=1;strokeColor=none;fillColor=none;fontFamily=Helvetica;fontSize=7;fontColor=default;labelBackgroundColor=none;rotation=0;" vertex="1" parent="1">
          <mxGeometry x="310" y="162" width="60" height="20" as="geometry" />
        </mxCell>
        <mxCell id="up7-3EUq6QfrWLDxx7Hq-27" value="Payer l&#39;addition" style="ellipse;whiteSpace=wrap;html=1;" vertex="1" parent="1">
          <mxGeometry x="370" y="290" width="110" height="49" as="geometry" />
        </mxCell>
        <mxCell id="up7-3EUq6QfrWLDxx7Hq-28" value="" style="endArrow=none;html=1;rounded=0;strokeColor=default;align=center;verticalAlign=middle;fontFamily=Helvetica;fontSize=11;fontColor=default;labelBackgroundColor=default;exitX=0.556;exitY=0.631;exitDx=0;exitDy=0;exitPerimeter=0;entryX=0;entryY=0.388;entryDx=0;entryDy=0;entryPerimeter=0;" edge="1" parent="1" source="up7-3EUq6QfrWLDxx7Hq-3" target="up7-3EUq6QfrWLDxx7Hq-27">
          <mxGeometry width="50" height="50" relative="1" as="geometry">
            <mxPoint x="20" y="330" as="sourcePoint" />
            <mxPoint x="70" y="280" as="targetPoint" />
          </mxGeometry>
        </mxCell>
        <mxCell id="up7-3EUq6QfrWLDxx7Hq-29" value="Côté bar" style="shape=umlFrame;whiteSpace=wrap;html=1;pointerEvents=0;fontFamily=Helvetica;fontSize=11;fontColor=default;labelBackgroundColor=default;" vertex="1" parent="1">
          <mxGeometry x="580" y="105" width="370" height="275" as="geometry" />
        </mxCell>
        <mxCell id="up7-3EUq6QfrWLDxx7Hq-30" value="Commande envoyée" style="ellipse;whiteSpace=wrap;html=1;fontFamily=Helvetica;fontSize=11;fontColor=default;labelBackgroundColor=default;" vertex="1" parent="1">
          <mxGeometry x="610" y="170" width="120" height="50" as="geometry" />
        </mxCell>
        <mxCell id="up7-3EUq6QfrWLDxx7Hq-31" value="" style="endArrow=none;html=1;rounded=0;strokeColor=default;align=center;verticalAlign=middle;fontFamily=Helvetica;fontSize=11;fontColor=default;labelBackgroundColor=default;exitX=1;exitY=0.5;exitDx=0;exitDy=0;entryX=0.014;entryY=0.387;entryDx=0;entryDy=0;entryPerimeter=0;" edge="1" parent="1" source="up7-3EUq6QfrWLDxx7Hq-10" target="up7-3EUq6QfrWLDxx7Hq-30">
          <mxGeometry width="50" height="50" relative="1" as="geometry">
            <mxPoint x="510" y="310" as="sourcePoint" />
            <mxPoint x="560" y="260" as="targetPoint" />
          </mxGeometry>
        </mxCell>
        <mxCell id="up7-3EUq6QfrWLDxx7Hq-32" value="" style="endArrow=none;html=1;rounded=0;strokeColor=default;align=center;verticalAlign=middle;fontFamily=Helvetica;fontSize=11;fontColor=default;labelBackgroundColor=default;exitX=1;exitY=0.5;exitDx=0;exitDy=0;entryX=0.013;entryY=0.625;entryDx=0;entryDy=0;entryPerimeter=0;" edge="1" parent="1" source="up7-3EUq6QfrWLDxx7Hq-11" target="up7-3EUq6QfrWLDxx7Hq-30">
          <mxGeometry width="50" height="50" relative="1" as="geometry">
            <mxPoint x="510" y="310" as="sourcePoint" />
            <mxPoint x="560" y="260" as="targetPoint" />
          </mxGeometry>
        </mxCell>
        <mxCell id="up7-3EUq6QfrWLDxx7Hq-33" value="Barman" style="shape=umlActor;verticalLabelPosition=bottom;verticalAlign=top;html=1;textShadow=0;" vertex="1" parent="1">
          <mxGeometry x="970" y="186" width="30" height="60" as="geometry" />
        </mxCell>
      </root>
    </mxGraphModel>
  </diagram>
</mxfile>
